<svg width="64" height="37" viewBox="0 0 64 37" fill="none" xmlns="http://www.w3.org/2000/svg">
<path d="M41.7448 0.247565C41.9114 0.469054 42.0485 0.876887 42.0477 1.13928C42.0465 1.51906 41.7798 1.95324 41.4622 2.09034C41.3467 2.14521 41.3002 2.23483 41.2416 2.53847C41.1536 3.00084 40.91 3.42819 40.6616 3.55169C40.523 3.6134 40.4824 3.68233 40.482 3.82043C40.4817 3.924 40.4233 4.14478 40.3535 4.31028C40.2548 4.54475 40.1506 4.66181 39.9483 4.78546C39.7807 4.8816 39.6708 4.99174 39.6706 5.06079C39.6698 5.30937 39.3395 5.79859 39.0737 5.94966C38.9177 6.03894 38.7673 6.18347 38.7208 6.2869C38.5465 6.68685 37.9912 7.20298 37.7374 7.20217C37.6971 7.20205 37.6391 7.28472 37.6215 7.38134C37.5747 7.58835 37.1577 8.14635 37.0018 8.20109C36.944 8.22853 36.8745 8.31808 36.8569 8.4147C36.8043 8.65621 36.3588 9.09673 36.0643 9.19247C35.8565 9.26087 35.7928 9.32972 35.6766 9.59174C35.4384 10.1296 35.0048 10.4735 33.8726 11.0223C33.6589 11.1252 33.3814 11.3108 33.2657 11.4347C33.1268 11.5655 32.7975 11.7578 32.3932 11.9291L31.7348 12.2101L31.6778 11.9959C31.5466 11.5467 31.0026 10.2951 30.6757 9.70024C29.351 7.27927 27.3045 5.13912 24.8236 3.57073C24.4437 3.32785 24.1616 3.16124 24.1903 3.20276C24.2248 3.2374 24.4835 3.50751 24.7768 3.79845C25.8404 4.87901 26.3453 5.70922 26.5783 6.80096C26.7431 7.58176 26.7834 9.43246 26.6534 10.4126C26.3935 12.3521 26.3695 12.642 26.4318 13.0082C26.4772 13.2362 26.5574 13.4298 26.6608 13.5475C26.8332 13.7414 27.3342 14.0054 27.5418 14.006C27.7322 14.0066 27.6165 14.103 27.1428 14.3362C26.7962 14.5147 26.6981 14.5351 26.5079 14.4792C26.1795 14.3884 25.8045 14.4011 25.4235 14.5172C25.054 14.6335 24.9731 14.6884 25.0998 14.7441C25.1401 14.758 25.2609 14.862 25.3586 14.9728L25.5368 15.1667L25.0341 15.4482L24.5314 15.7297L24.1858 15.5836C23.9727 15.5001 23.6845 15.4439 23.448 15.4432L23.0616 15.442L23.211 15.6289C23.2914 15.7396 23.3774 15.8918 23.3944 15.9747C23.4286 16.1129 23.3997 16.1405 23.0417 16.2636C22.1814 16.5578 22.1929 16.5579 21.8185 16.4048C21.5939 16.3143 21.3229 16.2651 21.0519 16.2642C20.6424 16.2629 20.6366 16.2698 20.7516 16.3876C20.8723 16.5054 21.0328 16.8097 20.9923 16.851C20.9808 16.8579 20.7095 16.933 20.3804 17.0148L19.7859 17.1579L19.573 16.9915C19.3429 16.8113 19.0837 16.7069 18.7378 16.6436L18.5188 16.6084L18.6393 16.809C18.7024 16.9128 18.7538 17.0787 18.7535 17.1754C18.753 17.3342 18.7298 17.3479 18.2451 17.4223C17.5238 17.5305 17.4316 17.5164 17.1842 17.3085C16.9714 17.1352 16.384 16.8502 16.3434 16.9054C16.3319 16.9191 16.3489 16.9882 16.3833 17.0643C16.4177 17.1473 16.4461 17.2855 16.4457 17.3821L16.4452 17.5617L15.8165 17.5597C15.4705 17.5586 15.1764 17.53 15.165 17.5024C15.1421 17.4264 14.6532 17.0036 14.5898 17.0034C14.5667 17.0033 14.5549 17.0792 14.5777 17.176C14.6458 17.5076 14.6054 17.5351 14 17.4711C13.4868 17.4142 13.4177 17.3864 13.1819 17.1716C12.8599 16.8736 12.7331 16.8525 12.813 17.1014C12.8587 17.2534 12.8528 17.2741 12.7375 17.2738C12.5645 17.2663 12.173 17.0441 12.0524 16.8849C12.0007 16.8088 11.7199 16.221 11.4278 15.5779C10.0705 12.5422 8.59075 9.90671 7.17222 7.9826C6.71852 7.36661 5.79266 6.50055 5.25151 6.18121C4.7219 5.8619 4.68696 5.96537 5.07672 6.73997C5.36901 7.32783 5.51191 7.73568 6.27729 10.1066C6.44864 10.6388 6.7287 11.4476 6.90606 11.9039C7.58094 13.7082 8.10541 15.6571 8.17723 16.6586C8.21579 17.2319 8.1165 17.6251 7.79754 18.1765C7.37419 18.9071 6.34973 20.0433 5.82964 20.3592C5.69096 20.4417 5.12993 20.9371 4.58615 21.4532C2.48616 23.456 1.75751 24.0682 0.786743 24.6383C0.162688 25.0023 -0.0339551 25.1743 0.0579774 25.2851C0.247588 25.5136 1.38992 25.4067 2.59071 25.0514C4.76142 24.3954 6.17681 23.661 9.33259 21.558C10.0435 21.0838 10.7659 20.6303 10.9392 20.548C11.2338 20.4039 11.2742 20.3972 11.6373 20.4881C12.179 20.6279 12.2193 20.6487 12.0979 20.7312C12.0401 20.7724 11.9938 20.8275 11.9937 20.8621C11.9933 20.9656 12.42 21.0084 12.7086 20.9334C12.9222 20.8788 13.0722 20.8793 13.3027 20.9422C13.4698 20.991 13.6081 21.0398 13.608 21.0605C13.6079 21.0812 13.5673 21.1501 13.5152 21.219C13.4341 21.3293 13.4456 21.3362 13.7108 21.3854C13.8664 21.4135 14.0914 21.4004 14.2069 21.3662C14.3628 21.3115 14.4954 21.3188 14.7489 21.4025C14.9275 21.4652 15.0888 21.5278 15.1003 21.5417C15.1175 21.5555 15.0654 21.6382 14.9959 21.7278L14.8627 21.9L15.0759 21.949C15.197 21.977 15.4853 21.9779 15.7161 21.9579C15.97 21.9311 16.2064 21.9457 16.2985 21.9874L16.4598 22.0639L16.3036 22.2222C16.211 22.3116 16.1588 22.4013 16.1876 22.4152C16.3084 22.5122 16.7986 22.5414 17.0756 22.4732C17.3585 22.3981 17.4334 22.4122 17.7214 22.5374C17.9 22.6208 18.0438 22.7179 18.0437 22.7525C18.0436 22.7939 17.9682 22.911 17.8756 23.0212C17.7483 23.1727 17.7308 23.2279 17.7941 23.2557C17.9612 23.3322 18.6072 23.2997 18.844 23.1969C19.0635 23.1078 19.1039 23.108 19.3976 23.247C19.5704 23.3235 19.7143 23.4137 19.7142 23.4482C19.714 23.4828 19.6329 23.6137 19.5402 23.7446L19.3606 23.9857L19.62 24.028C19.891 24.0772 20.2487 24.03 20.5779 23.8929C20.7454 23.8244 20.8261 23.8315 21.0623 23.929C21.2236 23.9916 21.3617 24.0887 21.3731 24.1371C21.3902 24.1924 21.3148 24.3164 21.2107 24.4197L21.0255 24.6055L21.2444 24.6822C21.5556 24.7868 21.8786 24.7809 22.2654 24.6578C22.5656 24.5621 22.6175 24.5691 22.9689 24.7014C23.303 24.8268 23.3376 24.8545 23.2853 24.9717C23.2562 25.0407 23.1462 25.1716 23.0479 25.2679L22.8628 25.44L23.2547 25.5172C23.6582 25.6013 24.0217 25.5679 24.3913 25.4172C24.5761 25.3418 24.6453 25.342 24.8642 25.4325C25.1234 25.5438 25.1234 25.5438 25.0363 25.7092C24.9841 25.7988 24.8741 25.9366 24.7931 26.0054L24.6428 26.1361L24.9828 26.22C25.3574 26.3179 25.7958 26.2778 26.1943 26.1134C26.4311 26.0174 26.4888 26.0245 26.7999 26.1291L27.1456 26.2476L26.8912 26.4332C26.3824 26.8183 26.347 27.0875 26.6487 28.3314C27.349 31.2199 27.0473 33.615 25.797 35.0473L25.4728 35.4261L25.837 35.158C27.9587 33.5972 29.7897 30.9169 30.7159 28.0127C30.8383 27.6195 30.937 27.4127 30.9947 27.4129C31.0408 27.413 31.7325 27.5671 32.5278 27.7561C35.006 28.3508 36.8506 28.6881 38.8455 28.9154C39.7334 29.0218 41.7573 29.1732 42.2764 29.1748L42.5013 29.1755L42.2411 29.3956C42.0965 29.5126 41.9113 29.7191 41.8359 29.857C41.7025 30.0845 41.6966 30.1466 41.693 31.279C41.6898 32.301 41.6777 32.4805 41.5849 32.6252C41.5269 32.7217 41.4168 32.9008 41.3414 33.0318C41.1907 33.273 41.1848 33.3075 41.0834 34.3844C40.9881 35.337 40.8079 35.7714 40.1825 36.5567C40.0377 36.7426 39.9161 36.908 39.916 36.9218C39.916 36.9425 40.1295 36.9017 40.395 36.8335C42.1556 36.3764 43.578 35.2485 44.5986 33.4978C44.7668 33.2083 45.121 32.4706 45.3882 31.8638C45.9575 30.5743 46.3461 29.8851 46.7687 29.4099C47.0639 29.0794 47.0754 29.0726 47.5254 29.0256C48.9505 28.8782 50.1454 28.5713 51.5084 27.9955C52.0974 27.7488 52.5766 27.5915 53.0095 27.5169C54.2156 27.2998 55.6882 26.6968 56.8788 25.941C57.6012 25.4737 58.8327 24.5178 59.9836 23.5271C61.0825 22.5707 61.435 22.344 62.3127 22.0222C62.6938 21.8784 63.0172 21.7551 63.0288 21.7414C63.0925 21.6725 62.8224 21.3471 62.5864 21.2014C62.005 20.8474 61.1689 20.7895 60.0088 21.0206C59.2528 21.1701 58.0067 21.2491 57.8686 21.1588C57.8053 21.1172 57.8865 20.9794 58.2512 20.5386C59.0676 19.5468 60.1144 18.6387 61.2181 17.9655C61.536 17.7731 61.8944 17.498 62.0275 17.3534C62.2302 17.1193 62.2534 17.0641 62.2194 16.8638C62.1685 16.5391 61.9559 16.3106 61.4089 15.9912C61.1384 15.8315 60.7067 15.5332 60.4478 15.3322C58.6872 13.9732 56.0913 12.294 54.3754 11.4047C51.8763 10.1194 49.3523 9.40706 46.4749 9.19082C45.7426 9.14017 45.8288 9.23021 45.7162 8.36672C45.5586 7.1233 45.04 5.1537 44.582 4.05434C43.9466 2.54702 43.0223 1.1976 42.1075 0.45586C41.6646 0.088493 41.6013 0.053766 41.7448 0.247565Z" fill="#817171"/>
</svg>
