<svg width="78" height="44" viewBox="0 0 78 44" fill="none" xmlns="http://www.w3.org/2000/svg">
<path d="M14.4907 10.6312C14.4894 9.68321 13.4361 8.91583 12.1348 8.91481C10.8335 8.91378 9.78245 9.67949 9.78382 10.6275L9.81569 32.6259C9.81706 33.5738 10.8704 34.3412 12.1716 34.3422C13.4729 34.3433 14.524 33.5776 14.5226 32.6296L14.4907 10.6312ZM77.3487 14.5361C77.3473 13.5882 76.294 12.8208 74.9927 12.8198C73.6915 12.8187 72.6404 13.5844 72.6417 14.5324L72.6624 28.8155C72.6638 29.7635 73.7171 30.5309 75.0184 30.5319C76.3196 30.5329 77.3707 29.7672 77.3694 28.8192L77.3487 14.5361ZM68.3651 10.6737C68.3637 9.72569 67.3104 8.95832 66.0091 8.95729C64.7079 8.95627 63.6568 9.72198 63.6581 10.67L63.69 32.6684C63.6914 33.6163 64.7447 34.3837 66.0459 34.3847C67.3472 34.3858 68.3983 33.62 68.3969 32.6721L68.3651 10.6737ZM59.3435 6.39387C59.3421 5.45044 58.3013 4.68761 57.0249 4.6866C55.7424 4.68559 54.7099 5.44678 54.7113 6.39022L54.7555 36.934C54.7569 37.8774 55.7978 38.6403 57.0741 38.6413C58.3567 38.6423 59.3891 37.8811 59.3877 36.9376L59.3435 6.39387ZM50.3962 1.79664C50.3948 0.848668 49.3415 0.0812961 48.0403 0.0802699C46.739 0.0792438 45.6879 0.844957 45.6893 1.79293L45.7468 41.5125C45.7482 42.4605 46.8015 43.2279 48.1027 43.2289C49.404 43.2299 50.4551 42.4642 50.4537 41.5162L50.3962 1.79664ZM23.4743 14.4936C23.473 13.5457 22.4197 12.7783 21.1184 12.7773C19.8172 12.7763 18.7661 13.542 18.7674 14.4899L18.7881 28.773C18.7895 29.721 19.8428 30.4884 21.1441 30.4894C22.4453 30.4904 23.4964 29.7247 23.495 28.7767L23.4743 14.4936ZM32.4468 10.6453C32.4454 9.69737 31.3921 8.92999 30.0908 8.92897C28.7896 8.92794 27.7385 9.69365 27.7399 10.6416L27.7717 32.64C27.7731 33.588 28.8264 34.3554 30.1277 34.3564C31.4289 34.3574 32.48 33.5917 32.4786 32.6437L32.4468 10.6453ZM41.3875 6.37971C41.3861 5.43628 40.3452 4.67345 39.0689 4.67244C37.7863 4.67143 36.7539 5.43262 36.7553 6.37606L36.7995 36.9198C36.8009 37.8633 37.8417 38.6261 39.1181 38.6271C40.4007 38.6281 41.4331 37.8669 41.4317 36.9235L41.3875 6.37971ZM5.46919 6.35139C5.46782 5.40795 4.42696 4.64513 3.15061 4.64412C1.86804 4.64311 0.83561 5.4043 0.836976 6.34774L0.881216 36.8915C0.882582 37.8349 1.92344 38.5978 3.19979 38.5988C4.48237 38.5998 5.51479 37.8386 5.51343 36.8952L5.46919 6.35139Z" fill="black"/>
</svg>
